<?xml version="1.0" encoding="UTF-8"?>
<svg version="1.1" xmlns="http://www.w3.org/2000/svg" width="512" height="512">
<path d="M0 0 C1.96681742 -0.00693688 3.93363464 -0.01393198 5.90045166 -0.02098083 C12.14978266 -0.0401294 18.39908062 -0.04489638 24.6484375 -0.046875 C25.70868385 -0.04761143 26.76893021 -0.04834785 27.86130524 -0.0491066 C78.81265327 -0.07797767 78.81265327 -0.07797767 103.8984375 1.515625 C104.85518372 1.57447876 105.81192993 1.63333252 106.79766846 1.69396973 C138.74545498 3.74432803 165.94356643 11.60102147 188.0234375 36.203125 C203.19708878 54.63749708 208.67235754 77.09543023 209.83984375 100.484375 C209.90123032 101.61798462 209.96261688 102.75159424 210.02586365 103.91955566 C210.15400123 106.30932729 210.27904774 108.6992665 210.40112305 111.08935547 C210.58267887 114.6394073 210.77383301 118.18883323 210.96679688 121.73828125 C211.34997412 128.89185481 211.69329555 136.04692773 212.0234375 143.203125 C212.10082657 144.81873322 212.10082657 144.81873322 212.17977905 146.46697998 C213.25858757 169.64159793 213.21086524 192.82830987 213.20874023 216.02294922 C213.20865972 220.52038662 213.21549826 225.01772054 213.22924805 229.51513672 C213.3273287 262.12555782 212.5910563 294.62995108 211.0234375 327.203125 C210.98081472 328.08960157 210.93819195 328.97607815 210.89427757 329.88941765 C210.77153516 332.42269855 210.64704171 334.95588295 210.52124023 337.48901367 C210.48486073 338.22288425 210.44848122 338.95675484 210.4109993 339.71286392 C208.77365186 371.96388956 202.68382437 398.78370539 178.2734375 421.890625 C160.95059983 436.90375098 140.42208945 443.25241184 118.0234375 445.203125 C116.76789063 445.31527344 115.51234375 445.42742187 114.21875 445.54296875 C110.82115988 445.81432989 107.42689906 446.02204603 104.0234375 446.203125 C102.47076172 446.31914063 102.47076172 446.31914063 100.88671875 446.4375 C93.79543153 446.77833624 93.79543153 446.77833624 89.8359375 443.828125 C88.0234375 441.203125 88.0234375 441.203125 88.0234375 439.203125 C81.4234375 439.533125 74.8234375 439.863125 68.0234375 440.203125 C67.6934375 441.853125 67.3634375 443.503125 67.0234375 445.203125 C63.41348803 448.81307447 59.42562625 448.32916105 54.50512695 448.33251953 C53.85885345 448.33427185 53.21257996 448.33602417 52.54672241 448.33782959 C50.41002713 448.34222826 48.27341489 448.3393126 46.13671875 448.3359375 C44.63616419 448.33661217 43.13560973 448.33758356 41.63505554 448.33883667 C38.4818722 448.34031184 35.32871716 448.33816879 32.17553711 448.33349609 C28.18429143 448.32786272 24.19311397 448.33103776 20.20187092 448.33706856 C17.09496068 448.34073408 13.98806579 448.33950748 10.88115501 448.33694077 C9.41313862 448.33628456 7.94512072 448.33705284 6.47710609 448.33942032 C-4.04163746 448.35263658 -14.48240261 447.91981429 -24.9765625 447.203125 C-23.39715599 450.55915904 -21.81275338 453.91279175 -20.2265625 457.265625 C-19.783125 458.20857422 -19.3396875 459.15152344 -18.8828125 460.12304688 C-16.43630151 465.28590463 -13.84519323 470.26448011 -10.9765625 475.203125 C-8.17625738 482.13721386 -8.56313672 488.84875947 -10.84765625 495.88671875 C-13.70822937 502.38982096 -17.83232886 506.65177813 -23.9765625 510.203125 C-30.35852524 512.65850385 -36.21569002 512.54741594 -42.9765625 512.515625 C-44.19102051 512.51071045 -45.40547852 512.5057959 -46.65673828 512.50073242 C-55.15825284 512.38954561 -62.84615686 511.85271843 -70.9765625 509.203125 C-72.02972656 508.8628125 -73.08289063 508.5225 -74.16796875 508.171875 C-94.21101641 501.03259448 -113.53655944 489.04969075 -123.12890625 469.40234375 C-123.9765625 467.203125 -123.9765625 467.203125 -123.9765625 464.203125 C-124.71519531 464.17734375 -125.45382813 464.1515625 -126.21484375 464.125 C-142.54099239 463.2122293 -153.09593841 455.5416433 -165.9765625 446.203125 C-166.70665527 445.67557617 -167.43674805 445.14802734 -168.18896484 444.60449219 C-184.46646662 432.77931055 -201.27441824 419.80244577 -214.2109375 404.28515625 C-216.06902831 402.09408899 -218.00846072 399.98931538 -219.96533203 397.88647461 C-225.2562139 392.19525469 -230.20713364 386.342236 -234.9765625 380.203125 C-236.06047286 378.83666414 -237.14517849 377.47083391 -238.23046875 376.10546875 C-254.76508289 355.20953094 -267.17978469 337.86455147 -264.9765625 310.203125 C-262.26394705 294.52843092 -252.98686267 281.80968801 -240.50390625 272.32421875 C-228.45965382 264.51014278 -213.1918874 261.40465231 -199.09375 263.88671875 C-187.07453212 266.49378096 -177.97327152 271.63682569 -168.13671875 278.91796875 C-167.44582153 279.42710815 -166.75492432 279.93624756 -166.04309082 280.46081543 C-164.35304057 281.70661555 -162.66463304 282.95464366 -160.9765625 284.203125 C-160.97878311 283.05816559 -160.98100372 281.91320618 -160.98329163 280.73355103 C-161.00376534 269.82227247 -161.01864938 258.91099793 -161.02837467 247.99970436 C-161.03354295 242.39318655 -161.04052719 236.78668452 -161.05200195 231.18017578 C-161.13733481 188.20810336 -161.13733481 188.20810336 -160.59765625 172.3515625 C-160.56704605 171.33526764 -160.53643585 170.31897278 -160.50489807 169.2718811 C-160.46646286 168.3692453 -160.42802765 167.4666095 -160.38842773 166.53662109 C-160.35740463 165.78416107 -160.32638153 165.03170105 -160.29441833 164.25643921 C-159.9256844 161.874458 -159.26008032 160.2409317 -157.9765625 158.203125 C-155.3515625 156.953125 -155.3515625 156.953125 -152.9765625 156.203125 C-152.91597656 155.17832031 -152.85539062 154.15351563 -152.79296875 153.09765625 C-152.70851224 151.73696805 -152.62386683 150.37629157 -152.5390625 149.015625 C-152.49974609 148.34208984 -152.46042969 147.66855469 -152.41992188 146.97460938 C-152.18728685 143.30613398 -151.80449239 139.78618294 -150.9765625 136.203125 C-152.1521875 136.0484375 -152.1521875 136.0484375 -153.3515625 135.890625 C-155.9765625 135.203125 -155.9765625 135.203125 -157.9765625 132.203125 C-158.23535156 130.28735352 -158.23535156 130.28735352 -158.2421875 128.08203125 C-158.24637695 127.2430127 -158.25056641 126.40399414 -158.25488281 125.53955078 C-158.24553711 124.62415527 -158.23619141 123.70875977 -158.2265625 122.765625 C-158.21979492 121.80640137 -158.21302734 120.84717773 -158.20605469 119.85888672 C-157.73903175 85.76078151 -153.73782015 54.68210026 -128.9765625 29.203125 C-113.27796213 13.96196729 -93.03750145 4.91310389 -71.26953125 3.38671875 C-70.4640535 3.32533218 -69.65857574 3.26394562 -68.82868958 3.20069885 C-67.13056976 3.07253867 -65.43221221 2.94749333 -63.73364258 2.82543945 C-61.20792898 2.64378005 -58.68307819 2.45269464 -56.15820312 2.25976562 C-54.48702137 2.13485075 -52.81579838 2.01048614 -51.14453125 1.88671875 C-50.42291306 1.83253281 -49.70129486 1.77834686 -48.95780945 1.72251892 C-32.64085312 0.55828144 -16.35588677 0.03611338 0 0 Z " fill="#FEDCB8" transform="translate(281.9765625,-0.203125)"/>
<path d="M0 0 C5.71516534 -0.09679118 11.42864885 -0.10870203 17.14453125 -0.10400391 C18.68359634 -0.10459305 18.68359634 -0.10459305 20.25375366 -0.10519409 C40.48752095 -0.09603563 60.65292065 0.67254288 80.85131836 1.81835938 C84.16658266 2.00567882 87.48215256 2.17385328 90.79907227 2.32910156 C91.64660568 2.36991348 92.4941391 2.4107254 93.36735535 2.45277405 C94.96502989 2.52918879 96.56285446 2.60256174 98.1608429 2.67210388 C121.47661086 3.81185982 142.55988316 11.95727313 158.64453125 29.08349609 C175.71293096 48.46490324 178.18517629 70.20826118 179.64453125 95.08349609 C179.70833984 96.16516052 179.70833984 96.16516052 179.7734375 97.26867676 C180.10147425 102.87273848 180.40865109 108.47778366 180.70703125 114.08349609 C180.74732452 114.82621765 180.7876178 115.56893921 180.82913208 116.33416748 C182.45045337 146.62641777 182.88048546 176.94106301 182.89453125 207.27099609 C182.89541496 208.15290241 182.89629868 209.03480873 182.89720917 209.94343948 C182.92078268 236.66340775 182.45197617 263.32673301 181.26953125 290.02099609 C181.22192406 291.10589136 181.22192406 291.10589136 181.1733551 292.2127037 C180.7338481 302.17379887 180.2178381 312.12910283 179.64453125 322.08349609 C179.53668808 324.02005066 179.53668808 324.02005066 179.42666626 325.99572754 C179.2103138 329.79034478 178.97565383 333.58335885 178.734375 337.37646484 C178.67097931 338.49351303 178.60758362 339.61056122 178.54226685 340.76145935 C177.41937398 357.29112363 171.64689521 371.96192804 161.64453125 385.08349609 C161.00773438 385.92009766 160.3709375 386.75669922 159.71484375 387.61865234 C145.66749199 404.60953632 124.70535885 412.59104939 103.28515625 414.72802734 C99.94169041 415.01583219 96.60783598 415.17469682 93.25390625 415.28271484 C92.35164307 415.31405518 91.44937988 415.34539551 90.51977539 415.37768555 C88.76162088 415.43054676 87.00279157 415.46498858 85.24389648 415.47875977 C80.36419897 415.59861764 80.36419897 415.59861764 76.1328125 417.87255859 C74.36853096 420.22262248 74.36853096 420.22262248 73.64453125 424.08349609 C66.71453125 424.41349609 59.78453125 424.74349609 52.64453125 425.08349609 C51.65453125 423.10349609 50.66453125 421.12349609 49.64453125 419.08349609 C46.65194278 417.58720186 43.60405448 418.02997296 40.328125 418.08349609 C38.82617176 418.08465566 37.32421481 418.08326911 35.82226562 418.07958984 C33.46001716 418.07519224 31.10172283 418.08306503 28.73999023 418.13476562 C15.71962258 418.39552981 15.71962258 418.39552981 10.73852539 415.24609375 C8.44410178 412.98393211 6.53734073 410.68701053 4.64453125 408.08349609 C3.67038233 406.94229303 2.69295546 405.80387234 1.7109375 404.66943359 C0.86822435 403.60546946 0.03359375 402.53505522 -0.79296875 401.45849609 C-1.25050537 400.86713867 -1.70804199 400.27578125 -2.17944336 399.66650391 C-15.93073998 381.66601166 -26.71491005 361.99711469 -35.35546875 341.08349609 C-35.76780762 340.09365723 -36.18014648 339.10381836 -36.60498047 338.08398438 C-41.47497094 326.18721361 -45.51215637 315.29067634 -44.93164062 302.27490234 C-44.8010382 299.69885961 -44.8010382 299.69885961 -45.35546875 296.08349609 C-46.31710938 295.47787842 -47.27875 294.87226074 -48.26953125 294.24829102 C-52.11163302 291.55304447 -52.38019526 290.09793349 -53.21875 285.56005859 C-53.46560547 284.29162109 -53.71246094 283.02318359 -53.96679688 281.71630859 C-54.20104395 280.38046272 -54.43476345 279.04452423 -54.66796875 277.70849609 C-54.9189368 276.379937 -55.17217176 275.05180403 -55.42773438 273.72412109 C-56.09783997 270.18136442 -56.73906505 266.63594883 -57.35546875 263.08349609 C-57.62725952 261.53819214 -57.62725952 261.53819214 -57.90454102 259.96166992 C-58.89639759 253.63086478 -59.56254289 248.28216391 -55.94140625 242.70458984 C-54.894562 241.29235637 -53.82333794 239.89792136 -52.73046875 238.52099609 C-51.62540387 237.05292178 -50.52122815 235.58417771 -49.41796875 234.11474609 C-48.62132812 233.07640625 -48.62132812 233.07640625 -47.80859375 232.01708984 C-45.50139604 228.94702838 -43.47256986 225.71060666 -41.44140625 222.45458984 C-41.08304687 222.00212891 -40.7246875 221.54966797 -40.35546875 221.08349609 C-39.69546875 221.08349609 -39.03546875 221.08349609 -38.35546875 221.08349609 C-37.06201172 222.66894531 -37.06201172 222.66894531 -35.59765625 224.88818359 C-34.78856812 226.09897583 -34.78856812 226.09897583 -33.96313477 227.33422852 C-33.39135498 228.20023682 -32.8195752 229.06624512 -32.23046875 229.95849609 C-31.05186915 231.7036022 -29.87089301 233.44710569 -28.6875 235.18896484 C-27.82825928 236.45426025 -27.82825928 236.45426025 -26.95166016 237.74511719 C-24.98485279 240.62643883 -23.00294411 243.47348547 -20.91796875 246.27099609 C-20.36238281 247.02767578 -19.80679688 247.78435547 -19.234375 248.56396484 C-17.35556285 250.36339403 -17.35556285 250.36339403 -14.28515625 250.41943359 C-11.28982622 250.2937593 -11.28982622 250.2937593 -8.91796875 248.52099609 C-7.13371821 245.73756526 -7.15344331 244.29958821 -7.70678711 241.0925293 C-9.02184187 237.01967057 -11.77311813 233.81370917 -14.35546875 230.45849609 C-15.5375422 228.87597178 -16.7185241 227.29263157 -17.8984375 225.70849609 C-18.48286621 224.93119141 -19.06729492 224.15388672 -19.66943359 223.35302734 C-22.08035454 220.10774482 -24.3835668 216.79353414 -26.66796875 213.45849609 C-27.38597656 212.41435547 -28.10398437 211.37021484 -28.84375 210.29443359 C-29.34261719 209.56482422 -29.84148437 208.83521484 -30.35546875 208.08349609 C-27.15157597 202.86024836 -23.89119753 197.75453256 -20.21875 192.84912109 C-19.67508789 192.11363037 -19.13142578 191.37813965 -18.57128906 190.62036133 C-17.48599647 189.1602165 -16.38544476 187.71126609 -15.26855469 186.27514648 C-11.63453655 181.35210442 -10.44444023 178.2213014 -11.35546875 172.08349609 C-14.84670892 169.75600265 -16.24769126 169.58050293 -20.35546875 170.08349609 C-23.3361851 172.68124001 -25.53018908 175.58621602 -27.73828125 178.84912109 C-28.34800781 179.73857422 -28.95773437 180.62802734 -29.5859375 181.54443359 C-30.85868822 183.4181326 -32.12949376 185.29315426 -33.3984375 187.16943359 C-34.00558594 188.05373047 -34.61273438 188.93802734 -35.23828125 189.84912109 C-36.06416748 191.06776855 -36.06416748 191.06776855 -36.90673828 192.31103516 C-37.38481934 192.89594727 -37.86290039 193.48085937 -38.35546875 194.08349609 C-39.01546875 194.08349609 -39.67546875 194.08349609 -40.35546875 194.08349609 C-41.92431641 192.00390625 -41.92431641 192.00390625 -43.76953125 189.12255859 C-44.44886719 188.09388672 -45.12820312 187.06521484 -45.828125 186.00537109 C-47.25246538 183.82362286 -48.66416572 181.63356539 -50.0625 179.43505859 C-51.09310547 177.88818359 -51.09310547 177.88818359 -52.14453125 176.31005859 C-53.06806396 174.88040771 -53.06806396 174.88040771 -54.01025391 173.421875 C-57.26061743 170.18098578 -59.88059888 169.88982636 -64.35546875 169.08349609 C-64.49343811 158.05787064 -64.22696589 147.19807848 -63.23046875 136.20849609 C-63.16678101 135.4933786 -63.10309326 134.77826111 -63.03747559 134.04147339 C-59.12732155 91.0657222 -49.63133333 47.47487813 -29.35546875 9.08349609 C-28.87000076 8.05859322 -28.87000076 8.05859322 -28.37472534 7.01298523 C-27.19457188 4.77531853 -26.07474836 2.94245192 -24.35546875 1.08349609 C-21.13521054 0.25333703 -19.16698458 0.0118294 -15.94921875 0.09521484 C-15.11886108 0.08495773 -14.28850342 0.07470062 -13.4329834 0.06413269 C-11.65316348 0.04649444 -9.87309725 0.04645314 -8.09326172 0.06243896 C-5.39332555 0.08320493 -2.69947475 0.05022479 0 0 Z " fill="#FEEFCD" transform="translate(297.35546875,14.91650390625)"/>
<path d="M0 0 C1.21600411 2.43200821 1.13535329 4.00093008 1.15148926 6.71974182 C1.15983292 7.71603607 1.16817657 8.71233032 1.17677307 9.73881531 C1.18095749 10.83635635 1.18514191 11.9338974 1.18945312 13.06469727 C1.20189308 14.79444794 1.20189308 14.79444794 1.21458435 16.55914307 C1.23202349 19.07293364 1.24717962 21.58674082 1.26036072 24.10055733 C1.28138381 28.09181079 1.30828155 32.08300053 1.33703613 36.07420349 C1.39208114 43.85000725 1.44013114 51.62584599 1.48697662 59.40170288 C1.54629799 69.24411546 1.60713696 79.08650832 1.67754889 88.92884868 C1.7100258 93.51151126 1.73560839 98.09418294 1.7598877 102.67689514 C1.79472111 108.45304931 1.85582857 114.22810649 1.95080566 120.00358963 C1.98230722 121.92233863 2.00881709 123.84118008 2.02893066 125.76008224 C2.06016689 128.14234488 2.12378035 130.52095507 2.20117188 132.90209961 C2.23271362 134.16146835 2.26425537 135.4208371 2.29675293 136.71836853 C3.6828912 143.18664284 8.89941928 146.32151427 14 150 C28.28152296 161.73437591 41.86298805 175.31546875 52.73876953 190.28125 C54.10862315 192.14802691 55.51711824 193.98087441 56.93359375 195.8125 C62.23727149 202.70372496 67.28912354 209.73021173 72.0625 217 C72.51560547 217.68167236 72.96871094 218.36334473 73.43554688 219.06567383 C77.808905 225.85051755 80.44418085 231.78621274 80.1875 240 C80.14689453 241.7015625 80.14689453 241.7015625 80.10546875 243.4375 C80.07066406 244.283125 80.03585938 245.12875 80 246 C80.59425781 246.12375 81.18851563 246.2475 81.80078125 246.375 C92.77360866 249.10540806 101.31925965 255.99955814 108 265 C108.639375 266.134375 109.27875 267.26875 109.9375 268.4375 C111.83959312 271.37210364 111.83959312 271.37210364 115.56648254 271.65228271 C120.04437744 272.0790161 124.50359187 272.13784037 128.9987793 272.12597656 C130.29058609 272.12877876 130.29058609 272.12877876 131.60848999 272.13163757 C133.46414074 272.13561746 135.31979631 272.13771418 137.17545128 272.13809967 C142.14893524 272.14243244 147.12229219 272.17351443 152.09570312 272.19921875 C158.40962725 272.22963168 164.72334915 272.25231103 171.03735352 272.25048828 C176.15613042 272.24970202 181.27430399 272.27301622 186.39292336 272.3123703 C188.33973288 272.32283373 190.28661199 272.32435182 192.23343468 272.31671906 C194.95275938 272.30711319 197.67024577 272.32824372 200.3894043 272.35644531 C201.59191078 272.34115028 201.59191078 272.34115028 202.81871033 272.32554626 C206.86868742 272.40087976 208.77646274 272.82538637 212.00691223 275.34881592 C214 278 214 278 214.5 281.0625 C213.94870735 284.3013443 213.35505503 285.72905408 211 288 C207.52771206 289.21874533 204.13370843 289.12690185 200.48168945 289.12939453 C199.83541595 289.13114685 199.18914246 289.13289917 198.52328491 289.13470459 C196.38658963 289.13910326 194.24997739 289.1361876 192.11328125 289.1328125 C190.61272669 289.13348717 189.11217223 289.13445856 187.61161804 289.13571167 C184.4584347 289.13718684 181.30527966 289.13504379 178.15209961 289.13037109 C174.16085393 289.12473772 170.16967647 289.12791276 166.17843342 289.13394356 C163.07152318 289.13760908 159.96462829 289.13638248 156.85771751 289.13381577 C155.38970112 289.13315956 153.92168322 289.13392784 152.45366859 289.13629532 C141.93492504 289.14951158 131.49415989 288.71668929 121 288 C122.57940651 291.35603404 124.16380912 294.70966675 125.75 298.0625 C126.1934375 299.00544922 126.636875 299.94839844 127.09375 300.91992188 C129.54026099 306.08277963 132.13136927 311.06135511 135 316 C137.80030512 322.93408886 137.41342578 329.64563447 135.12890625 336.68359375 C132.26833313 343.18669596 128.14423364 347.44865313 122 351 C115.61803726 353.45537885 109.76087248 353.34429094 103 353.3125 C101.78554199 353.30758545 100.57108398 353.3026709 99.31982422 353.29760742 C90.81830966 353.18642061 83.13040564 352.64959343 75 350 C73.94683594 349.6596875 72.89367187 349.319375 71.80859375 348.96875 C51.76554609 341.82946948 32.44000306 329.84656575 22.84765625 310.19921875 C22 308 22 308 22 305 C21.26136719 304.97421875 20.52273437 304.9484375 19.76171875 304.921875 C3.43557011 304.0091043 -7.11937591 296.3385183 -20 287 C-20.73009277 286.47245117 -21.46018555 285.94490234 -22.21240234 285.40136719 C-38.48990412 273.57618555 -55.29785574 260.59932077 -68.234375 245.08203125 C-70.09246581 242.89096399 -72.03189822 240.78619038 -73.98876953 238.68334961 C-79.2796514 232.99212969 -84.23057114 227.139111 -89 221 C-90.08391036 219.63353914 -91.16861599 218.26770891 -92.25390625 216.90234375 C-108.78852039 196.00640594 -121.20322219 178.66142647 -119 151 C-116.28738455 135.32530592 -107.01030017 122.60656301 -94.52734375 113.12109375 C-82.48309132 105.30701778 -67.2153249 102.20152731 -53.1171875 104.68359375 C-41.09796962 107.29065596 -31.99670902 112.43370069 -22.16015625 119.71484375 C-21.46925903 120.22398315 -20.77836182 120.73312256 -20.06652832 121.25769043 C-18.37647807 122.50349055 -16.68807054 123.75151866 -15 125 C-15.00222061 123.85504059 -15.00444122 122.71008118 -15.00672913 121.53042603 C-15.02720284 110.61914747 -15.04208688 99.70787293 -15.05181217 88.79657936 C-15.05698045 83.19006155 -15.06396469 77.58355952 -15.07543945 71.97705078 C-15.16077231 29.00497836 -15.16077231 29.00497836 -14.62109375 13.1484375 C-14.59048355 12.13214264 -14.55987335 11.11584778 -14.52833557 10.0687561 C-14.48990036 9.1661203 -14.45146515 8.2634845 -14.41186523 7.33349609 C-14.38084213 6.58103607 -14.34981903 5.82857605 -14.31785583 5.05331421 C-13.95095747 2.68319058 -13.24780864 1.04303407 -12 -1 C-7.41978681 -4.00985438 -4.57364413 -2.46273146 0 0 Z " fill="#010101" transform="translate(136,159)"/>
<path d="M0 0 C1.96681742 -0.00693688 3.93363464 -0.01393198 5.90045166 -0.02098083 C12.14978266 -0.0401294 18.39908062 -0.04489638 24.6484375 -0.046875 C25.70868385 -0.04761143 26.76893021 -0.04834785 27.86130524 -0.0491066 C78.81265327 -0.07797767 78.81265327 -0.07797767 103.8984375 1.515625 C104.85518372 1.57447876 105.81192993 1.63333252 106.79766846 1.69396973 C138.74545498 3.74432803 165.94356643 11.60102147 188.0234375 36.203125 C203.19708878 54.63749708 208.67235754 77.09543023 209.83984375 100.484375 C209.90123032 101.61798462 209.96261688 102.75159424 210.02586365 103.91955566 C210.15400123 106.30932729 210.27904774 108.6992665 210.40112305 111.08935547 C210.58267887 114.6394073 210.77383301 118.18883323 210.96679688 121.73828125 C211.34997412 128.89185481 211.69329555 136.04692773 212.0234375 143.203125 C212.10082657 144.81873322 212.10082657 144.81873322 212.17977905 146.46697998 C213.25858757 169.64159793 213.21086524 192.82830987 213.20874023 216.02294922 C213.20865972 220.52038662 213.21549826 225.01772054 213.22924805 229.51513672 C213.3273287 262.12555782 212.5910563 294.62995108 211.0234375 327.203125 C210.98081472 328.08960157 210.93819195 328.97607815 210.89427757 329.88941765 C210.77153516 332.42269855 210.64704171 334.95588295 210.52124023 337.48901367 C210.48486073 338.22288425 210.44848122 338.95675484 210.4109993 339.71286392 C208.77365186 371.96388956 202.68382437 398.78370539 178.2734375 421.890625 C160.95059983 436.90375098 140.42208945 443.25241184 118.0234375 445.203125 C116.76789063 445.31527344 115.51234375 445.42742187 114.21875 445.54296875 C110.82115988 445.81432989 107.42689906 446.02204603 104.0234375 446.203125 C102.47076172 446.31914063 102.47076172 446.31914063 100.88671875 446.4375 C96.22650973 446.66148868 93.77805815 446.65874502 89.7109375 444.203125 C87.63964705 440.52083086 87.9254807 439.0027739 89.01953125 435.0703125 C90.35317238 432.58984378 91.60318143 431.66370216 94.0234375 430.203125 C97.11694336 429.7265625 97.11694336 429.7265625 100.73828125 429.578125 C101.3898671 429.54509277 102.04145294 429.51206055 102.71278381 429.47802734 C104.79513112 429.37322001 106.87761909 429.28623546 108.9609375 429.203125 C132.14109521 428.25665921 155.50223882 422.71200403 172.0234375 405.203125 C178.29468051 397.83441446 183.27992668 390.1266101 187.0234375 381.203125 C187.71953125 379.55570312 187.71953125 379.55570312 188.4296875 377.875 C191.48661315 369.52177294 192.51556746 361.50211592 193.0625 352.64453125 C193.14309662 351.42439835 193.22369324 350.20426544 193.30673218 348.94715881 C194.24688949 334.35308235 195.00732762 319.75054071 195.6484375 305.140625 C195.68114243 304.40229557 195.71384735 303.66396614 195.74754333 302.90326309 C196.92781857 276.06469943 197.30035541 249.25351444 197.2734375 222.390625 C197.27283703 221.09398989 197.27283703 221.09398989 197.27222443 219.77116013 C197.25471558 187.73266904 196.52796674 155.7527719 194.83105469 123.75610352 C194.64557344 120.21088239 194.47514595 116.66511221 194.3046875 113.11914062 C193.27753958 86.85147653 193.27753958 86.85147653 185.0234375 62.203125 C184.28480469 60.73166016 184.28480469 60.73166016 183.53125 59.23046875 C174.03781062 41.62899622 158.93126758 29.64379877 140.0234375 23.203125 C135.38691472 21.98298743 130.74713875 21.01574192 126.0234375 20.203125 C125.11875732 20.03723877 124.21407715 19.87135254 123.28198242 19.70043945 C119.75674327 19.16242251 116.29074606 18.90660835 112.73046875 18.703125 C112.02613205 18.66251953 111.32179535 18.62191406 110.59611511 18.58007812 C109.097614 18.49450297 107.59901931 18.41055307 106.1003418 18.328125 C103.91492724 18.2074854 101.72993574 18.08078985 99.54492188 17.953125 C74.85993076 16.5408917 50.182959 15.96693279 25.4609375 15.953125 C24.36552643 15.95179943 24.36552643 15.95179943 23.24798584 15.95044708 C-8.22452442 15.91685746 -39.53842335 17.20678553 -70.87890625 20.1953125 C-71.68501343 20.26970551 -72.49112061 20.34409851 -73.32165527 20.42074585 C-89.15211602 22.00124576 -101.79869655 28.11687724 -113.9765625 38.203125 C-114.56953125 38.63882813 -115.1625 39.07453125 -115.7734375 39.5234375 C-129.37776527 49.94510144 -137.1113881 68.85673826 -139.9765625 85.203125 C-140.53799142 90.32136171 -140.84194351 95.43665095 -141.1015625 100.578125 C-141.32317499 104.48161513 -141.54517013 108.38503574 -141.77441406 112.28808594 C-141.91337301 114.97932465 -142.01687733 117.65245896 -142.07714844 120.34472656 C-142.10090546 121.01927887 -142.12466248 121.69383118 -142.1491394 122.38882446 C-142.21473384 124.25304663 -142.25823509 126.11800854 -142.30029297 127.98291016 C-143.16376362 132.09452673 -144.7299828 133.61485454 -147.9765625 136.203125 C-151.51700331 136.85341005 -153.13466507 136.76489743 -156.13671875 134.76171875 C-158.92822929 130.8796818 -158.48581715 127.36805986 -158.3515625 122.703125 C-158.32787598 121.27105713 -158.32787598 121.27105713 -158.30371094 119.81005859 C-157.5162235 85.14397428 -153.58591001 53.09537894 -127.50195312 27.77148438 C-111.93394277 13.39626742 -92.36309829 4.86581427 -71.26953125 3.38671875 C-70.4640535 3.32533218 -69.65857574 3.26394562 -68.82868958 3.20069885 C-67.13056976 3.07253867 -65.43221221 2.94749333 -63.73364258 2.82543945 C-61.20792898 2.64378005 -58.68307819 2.45269464 -56.15820312 2.25976562 C-54.48702137 2.13485075 -52.81579838 2.01048614 -51.14453125 1.88671875 C-50.42291306 1.83253281 -49.70129486 1.77834686 -48.95780945 1.72251892 C-32.64085312 0.55828144 -16.35588677 0.03611338 0 0 Z " fill="#010101" transform="translate(281.9765625,-0.203125)"/>
<path d="M0 0 C4.07337257 2.90631451 8.04751191 5.93245056 12 9 C12.5573584 9.42974121 13.1147168 9.85948242 13.68896484 10.30224609 C29.84665544 22.77300814 45.10892135 36.08038612 59.625 50.4375 C60.32471924 51.12416748 61.02443848 51.81083496 61.74536133 52.51831055 C62.39915771 53.170979 63.0529541 53.82364746 63.7265625 54.49609375 C64.31002441 55.07544678 64.89348633 55.6547998 65.49462891 56.25170898 C67.05870884 58.06818261 68.02576881 59.81859529 69 62 C67.78376953 62.92619141 67.78376953 62.92619141 66.54296875 63.87109375 C54.8998607 72.76319223 43.66421292 81.949878 33 92 C32.2678125 92.68964844 31.535625 93.37929688 30.78125 94.08984375 C20.77788781 103.79548683 11.73966875 115.39049687 4 127 C-0.54765074 125.58079794 -3.3731071 123.05123895 -6.640625 119.72265625 C-7.16710632 119.19667343 -7.69358765 118.67069061 -8.23602295 118.12876892 C-9.34894722 117.01350934 -10.45819241 115.89456777 -11.56396484 114.7722168 C-13.22224509 113.09064475 -14.89311192 111.42247636 -16.56640625 109.75585938 C-23.15078156 103.15400961 -29.20041805 96.31111413 -35 89 C-36.15631775 87.60899187 -37.31741643 86.22193711 -38.484375 84.83984375 C-69.70894869 47.62551783 -69.70894869 47.62551783 -68 25 C-65.38263874 13.33404695 -58.55077081 4.01408608 -49 -3 C-32.42417186 -12.80919052 -15.58179547 -10.48730564 0 0 Z " fill="#6159C3" transform="translate(100,288)"/>
<path d="M0 0 C5.13859571 3.01840276 8.57552868 7.00645668 11.05078125 12.41796875 C13.64032323 18.30214472 13.64032323 18.30214472 18.43408203 22.30322266 C21.85035319 23.43353822 25.32763225 24.09009596 28.86328125 24.73046875 C36.3434139 26.11341462 40.78098634 28.90882252 45.55859375 34.75390625 C48.67682105 39.40427291 48.41116444 45.09081421 47.6875 50.4375 C45.8353926 55.03701395 43.36944945 59.06300368 39.5078125 62.21875 C36.04792184 65.12456564 33.91302124 67.39519493 33.39941406 72.04638672 C33.28858701 76.26670834 33.37258853 80.44294036 33.63134766 84.65673828 C33.98710586 91.24613577 33.63156685 95.98112743 29.6875 101.4375 C25.13523947 106.45143226 20.33920803 108.10077517 13.75 108.9375 C7.76731613 108.84561578 2.44025651 106.18861463 -2.95703125 103.84765625 C-7.95966831 101.53398571 -7.95966831 101.53398571 -13.15234375 102.36328125 C-14.17457031 102.82089844 -15.19679688 103.27851563 -16.25 103.75 C-17.26964844 104.19988281 -18.28929687 104.64976562 -19.33984375 105.11328125 C-21.18792764 105.93654069 -23.0356512 106.76061011 -24.8828125 107.5859375 C-30.09313911 109.41206483 -35.47932887 109.09467455 -40.625 107.25 C-45.72624258 103.80962709 -49.16451284 100.23455307 -51.3125 94.4375 C-51.52518148 89.20004081 -51.13905152 83.95805031 -50.75585938 78.734375 C-50.46895385 72.50341124 -50.46895385 72.50341124 -53.01464844 66.99365234 C-55.02681558 64.99940995 -57.12591056 63.23476921 -59.3125 61.4375 C-64.18027429 55.78665888 -66.87754997 50.0950657 -66.6171875 42.515625 C-65.8104089 37.01298121 -63.17097047 32.80415849 -59 29.1875 C-52.26905451 24.53933764 -42.43775409 22.03356767 -34.3125 22.4375 C-34.06757813 21.58285156 -33.82265625 20.72820312 -33.5703125 19.84765625 C-30.73108891 12.1500097 -24.96812393 2.98946658 -17.4765625 -0.890625 C-11.60355619 -2.71401324 -5.63293802 -2.47720028 0 0 Z " fill="#030404" transform="translate(317.3125,43.5625)"/>
<path d="M0 0 C8.27253645 5.9837515 15.40736047 14.95062127 17.1875 25.25 C18.15930833 43.39665171 18.15930833 43.39665171 14.1875 51.25 C13.58421875 52.47589844 13.58421875 52.47589844 12.96875 53.7265625 C6.63784758 65.36838861 -2.31044082 70.87977397 -14.69921875 74.85546875 C-26.64003735 77.08471585 -37.00304708 75.0727656 -47.3046875 68.7109375 C-55.60934954 62.81099242 -61.95092584 53.94893885 -64.359375 43.98828125 C-66.52801752 30.88295015 -64.42536474 19.31769177 -56.625 8.375 C-41.96547777 -8.91815934 -19.08048425 -11.75666201 0 0 Z " fill="#040403" transform="translate(435.8125,190.75)"/>
<path d="M0 0 C1.53051758 1.67724609 1.53051758 1.67724609 3.14453125 4.0234375 C3.73943359 4.88066406 4.33433594 5.73789062 4.94726562 6.62109375 C5.56279297 7.52988281 6.17832031 8.43867188 6.8125 9.375 C7.71838867 10.68017578 7.71838867 10.68017578 8.64257812 12.01171875 C21.08078704 30.08661868 21.08078704 30.08661868 21.375 41.1875 C21.42398438 42.43917969 21.47296875 43.69085938 21.5234375 44.98046875 C20.83161269 54.84717939 12.87865717 61.75236873 6.2355957 68.28588867 C4.68660694 69.81338066 3.16023657 71.36116902 1.63476562 72.91210938 C-5.92196572 80.48964173 -12.90344081 86.02918887 -24.0625 86.375 C-36.83060424 86.17835153 -46.04868556 77.669593 -55.98974609 70.45703125 C-58.98165649 68.28849576 -61.99128465 66.14513912 -65 64 C-63.51862773 59.53091624 -61.04716094 56.18114246 -58.125 52.5625 C-57.6410376 51.95631836 -57.1570752 51.35013672 -56.65844727 50.72558594 C-15.89354562 0 -15.89354562 0 0 0 Z " fill="#58D3FD" transform="translate(180,362)"/>
<path d="M0 0 C9.53947662 1.76675202 15.23544809 7.60009488 20.74609375 15.34375 C24.83050351 21.70003509 27.81928248 28.67048092 30.90039062 35.54980469 C32.66774103 39.48788831 34.48786456 43.40071955 36.3125 47.3125 C36.78248413 48.34250122 36.78248413 48.34250122 37.26196289 49.39331055 C38.7324729 52.5633734 40.22011844 55.32237205 42.203125 58.2265625 C44.83582567 62.29007875 44.52901247 64.23888781 44 69 C42.62835015 72.42912464 41.52619135 73.67437486 38.38671875 75.6171875 C34.4640572 77.21882786 31.10021117 77.41733515 26.9375 77.3125 C26.18799072 77.29977051 25.43848145 77.28704102 24.66625977 77.27392578 C2.39646901 76.69968078 -16.6906999 68.52623733 -32.93359375 53.2734375 C-36.6561778 49.17789134 -40 44.66481789 -40 39 C-38.24316406 37.80981445 -38.24316406 37.80981445 -35.765625 36.55078125 C-29.35546495 32.88831665 -24.44199575 28.01182728 -19.32128906 22.7878418 C-17.75062358 21.18813511 -16.16202658 19.60803236 -14.5703125 18.02929688 C-9.00595231 12.45155141 -3.99603643 6.84337509 0 0 Z " fill="#E3866C" transform="translate(213,420)"/>
<path d="M0 0 C2.53125 0.46484375 2.53125 0.46484375 4.375 2.3359375 C4.9215625 3.18285156 5.468125 4.02976563 6.03125 4.90234375 C6.62808594 5.81113281 7.22492188 6.71992187 7.83984375 7.65625 C9.35881986 10.17852211 10.74117428 12.7260238 12.09375 15.33984375 C14.34500434 19.41799458 16.15337132 21.51043363 20.53125 23.46484375 C23.80749283 24.08204562 27.08001348 24.54158548 30.38671875 24.96484375 C34.29907344 25.58693245 38.62740045 26.5609942 41.53125 29.46484375 C41.921875 31.62109375 41.921875 31.62109375 41.53125 34.46484375 C39.84852839 36.80904902 38.21126606 38.84821036 36.28125 40.96484375 C35.29636614 42.07897746 34.31198333 43.19355431 33.328125 44.30859375 C31.62015901 46.23829058 29.90756563 48.16349519 28.19140625 50.0859375 C26.35926416 52.71128935 26.06000878 53.87988848 26.21875 57.02734375 C26.24324219 57.77113281 26.26773438 58.51492187 26.29296875 59.28125 C26.4728416 61.43643441 26.4728416 61.43643441 27.03515625 63.36328125 C27.68345689 66.1096257 27.73932231 68.70770661 27.78125 71.52734375 C27.80703125 72.57019531 27.8328125 73.61304688 27.859375 74.6875 C27.53125 77.46484375 27.53125 77.46484375 26.453125 79.3984375 C23.2992338 81.1484625 20.95363975 80.27626387 17.53125 79.46484375 C15.3937742 78.51573088 13.28793583 77.49233828 11.21875 76.40234375 C5.39964453 73.66198963 0.91045309 71.98242024 -5.46875 73.46484375 C-8.84808571 74.83681358 -12.06628039 76.35495004 -15.29296875 78.0546875 C-18.77106043 79.59907999 -21.67422748 80.24919374 -25.46875 80.46484375 C-27.46875 78.46484375 -27.46875 78.46484375 -27.55297852 75.91796875 C-27.48522217 74.8609375 -27.41746582 73.80390625 -27.34765625 72.71484375 C-27.30060547 71.54824219 -27.25355469 70.38164063 -27.20507812 69.1796875 C-27.09058415 66.7328612 -26.9480373 64.28716174 -26.77539062 61.84375 C-26.55244543 54.9437853 -27.0504261 51.08726168 -31.76953125 45.859375 C-33.32249061 44.38028306 -34.88829951 42.91452371 -36.46875 41.46484375 C-37.70026878 40.04715648 -38.91360975 38.61307804 -40.09375 37.15234375 C-40.58101563 36.55808594 -41.06828125 35.96382812 -41.5703125 35.3515625 C-42.46875 33.46484375 -42.46875 33.46484375 -42.4296875 30.875 C-41.46875 28.46484375 -41.46875 28.46484375 -39.28125 27.13671875 C-34.03201016 25.41613458 -29.18205581 24.01827934 -23.63671875 23.8359375 C-19.67218151 23.15732302 -16.60097686 21.94746886 -14.10083008 18.67358398 C-12.74827085 16.47316697 -11.49974429 14.24215445 -10.28125 11.96484375 C-9.43769097 10.4313328 -8.59017176 8.89999212 -7.73828125 7.37109375 C-7.37323486 6.69369141 -7.00818848 6.01628906 -6.63208008 5.31835938 C-4.78252791 2.37149682 -3.48261067 0.65574473 0 0 Z " fill="#57D2FC" transform="translate(308.46875,56.53515625)"/>
<path d="M0 0 C1.81467773 -0.00773438 1.81467773 -0.00773438 3.66601562 -0.015625 C4.92736328 -0.00015625 6.18871094 0.0153125 7.48828125 0.03125 C9.35129883 0.00804687 9.35129883 0.00804687 11.25195312 -0.015625 C21.71078481 0.02871557 29.26933795 2.17495654 36.80078125 9.53125 C41.69471579 15.92055342 43.33556091 21.68101616 43.18359375 29.6484375 C42.22796433 36.84491214 38.33808906 42.9393362 32.80078125 47.53125 C26.13206029 52.4973188 20.53515384 53.84688625 12.42578125 53.65625 C11.32169922 53.64271484 11.32169922 53.64271484 10.1953125 53.62890625 C8.39699245 53.60555144 6.59884214 53.56968836 4.80078125 53.53125 C4.82696533 54.23209717 4.85314941 54.93294434 4.88012695 55.6550293 C4.98431665 58.8427065 5.04917708 62.03002526 5.11328125 65.21875 C5.15517578 66.32154297 5.19707031 67.42433594 5.24023438 68.56054688 C5.36392544 76.74889532 5.36392544 76.74889532 2.47265625 80.765625 C-0.79312114 82.92371181 -2.36060956 83.26630282 -6.19921875 82.53125 C-9.26768481 80.2687721 -10.11427688 79.07699283 -10.70715332 75.26782227 C-10.71033569 73.97416748 -10.71351807 72.6805127 -10.71679688 71.34765625 C-10.72380615 70.63173309 -10.73081543 69.91580994 -10.73803711 69.17819214 C-10.75561423 66.81631457 -10.7439965 64.45563933 -10.73046875 62.09375 C-10.73316377 60.44994884 -10.73704628 58.80614923 -10.74206543 57.16235352 C-10.74796005 53.71908372 -10.73939903 50.27622929 -10.72070312 46.83300781 C-10.69791317 42.42091307 -10.7110365 38.00979158 -10.73499298 33.59773254 C-10.74945218 30.20390499 -10.74484451 26.81030791 -10.73448181 23.41647339 C-10.73181484 21.78978358 -10.73508328 20.16307279 -10.74440002 18.53640747 C-10.75456817 16.26198972 -10.73906352 13.98914446 -10.71679688 11.71484375 C-10.7136145 10.42118896 -10.71043213 9.12753418 -10.70715332 7.79467773 C-9.69714343 1.30546735 -6.08624641 0.0250813 0 0 Z " fill="#030303" transform="translate(316.19921875,183.46875)"/>
<path d="M0 0 C4.54424729 3.94246242 7.82767215 8.70959774 11.25 13.625 C11.79140625 14.388125 12.3328125 15.15125 12.890625 15.9375 C16.8687996 21.60639881 16.8687996 21.60639881 18 25 C20.77286669 22.35656627 23.01595938 19.71563027 25.12890625 16.5234375 C25.68900391 15.688125 26.24910156 14.8528125 26.82617188 13.9921875 C27.98851695 12.2401713 29.14996829 10.48756186 30.31054688 8.734375 C31.14875977 7.48527344 31.14875977 7.48527344 32.00390625 6.2109375 C32.50736572 5.45087402 33.0108252 4.69081055 33.52954102 3.90771484 C35 2 35 2 38 0 C41.23232558 -0.34386442 43.37065456 -0.26498755 46.375 1 C48.4250469 3.52313465 48.50693522 5.50413112 48.43701172 8.69970703 C47.56556737 13.28671748 44.60846641 16.75623383 41.875 20.4375 C40.72607559 22.04001561 39.57763619 23.64287905 38.4296875 25.24609375 C37.8634668 26.02452637 37.29724609 26.80295898 36.71386719 27.60498047 C34.04311006 31.33719236 31.516771 35.16287103 29 39 C29.73863281 40.0415625 30.47726562 41.083125 31.23828125 42.15625 C33.36577509 45.15781951 35.48168827 48.16724501 37.59375 51.1796875 C39.78432443 54.29849272 42.01233925 57.38310505 44.28125 60.4453125 C45.29178808 61.83845361 46.30220963 63.23167925 47.3125 64.625 C47.79823486 65.26244141 48.28396973 65.89988281 48.78442383 66.55664062 C51.26014471 70.01710076 52.01503337 71.43162314 51.8984375 75.83984375 C51 79 51 79 49.3125 80.9375 C46.05681857 82.43335363 44.55650047 82.76708834 41 82 C33.95511886 76.42427749 29.1348844 67.09011243 24.16601562 59.69335938 C23.21345779 58.30999648 22.20061361 56.96831329 21.171875 55.640625 C20 54 20 54 20 52 C19.34 52 18.68 52 18 52 C17.72833008 52.73879395 17.45666016 53.47758789 17.17675781 54.23876953 C16.06007623 56.85903275 14.83882247 58.88289601 13.171875 61.1796875 C12.61886719 61.94410156 12.06585938 62.70851562 11.49609375 63.49609375 C10.91988281 64.28113281 10.34367187 65.06617188 9.75 65.875 C9.18925781 66.65230469 8.62851563 67.42960937 8.05078125 68.23046875 C5.3850528 71.89353672 2.66514087 75.50975344 -0.1953125 79.0234375 C-0.64922363 79.58208496 -1.10313477 80.14073242 -1.57080078 80.71630859 C-3 82 -3 82 -6.625 82.75 C-10 82 -10 82 -12.5 79.9375 C-14.49172053 76.0370473 -14.01462231 74.2349453 -13 70 C-11.61865659 67.48674229 -9.90881664 65.30222479 -8.125 63.0625 C-7.12917289 61.76220352 -6.13576533 60.4600512 -5.14453125 59.15625 C-4.62971191 58.48335937 -4.11489258 57.81046875 -3.58447266 57.1171875 C-0.88372471 53.50842229 1.65029356 49.78721938 4.1875 46.0625 C4.66880371 45.35810791 5.15010742 44.65371582 5.64599609 43.92797852 C6.76610271 42.28675387 7.88338652 40.64360321 9 39 C5.79235074 33.77062815 2.51937647 28.65681848 -1.13671875 23.73046875 C-1.68038086 22.99046631 -2.22404297 22.25046387 -2.78417969 21.48803711 C-3.87135733 20.0163659 -4.97198549 18.55452013 -6.08691406 17.10375977 C-9.3706331 12.63436942 -10.82369529 9.75154188 -10 4 C-7.27238925 -0.09141613 -4.79563536 -0.88083098 0 0 Z " fill="#040303" transform="translate(239,184)"/>
<path d="M0 0 C0.71353638 -0.00241196 1.42707275 -0.00482391 2.16223145 -0.00730896 C3.66501444 -0.0063331 5.16783454 0.0069986 6.67041016 0.03198242 C8.96251287 0.06631283 11.25075972 0.05262863 13.54296875 0.03320312 C15.00782881 0.04010207 16.47267897 0.04977492 17.9375 0.0625 C18.61784302 0.05754013 19.29818604 0.05258026 19.99914551 0.04747009 C23.46882964 0.1327693 25.4306396 0.60532179 28.40429688 2.44555664 C30.46875 4.62890625 30.46875 4.62890625 31.03125 8.12890625 C30.37714634 12.19888456 29.66325566 13.13980344 26.46875 15.62890625 C23.81152344 16.08300781 23.81152344 16.08300781 20.828125 16.01953125 C19.75820312 16.00664062 18.68828125 15.99375 17.5859375 15.98046875 C16.47476563 15.94695312 15.36359375 15.9134375 14.21875 15.87890625 C13.09210938 15.86085937 11.96546875 15.8428125 10.8046875 15.82421875 C8.02567821 15.7771169 5.24710631 15.70537477 2.46875 15.62890625 C2.46875 21.89890625 2.46875 28.16890625 2.46875 34.62890625 C4.01046875 34.5825 5.5521875 34.53609375 7.140625 34.48828125 C9.1666473 34.45076232 11.19269055 34.41436229 13.21875 34.37890625 C14.23453125 34.34539062 15.2503125 34.311875 16.296875 34.27734375 C23.81043632 34.1784811 23.81043632 34.1784811 27.140625 36.45703125 C28.96384788 39.4385369 29.04097739 41.1955419 28.46875 44.62890625 C27.140625 46.80078125 27.140625 46.80078125 24.46875 48.62890625 C20.70909102 49.12957979 17.00293422 49.00376512 13.21875 48.87890625 C12.1875 48.86085937 11.15625 48.8428125 10.09375 48.82421875 C7.5516855 48.77714348 5.01009933 48.70540171 2.46875 48.62890625 C2.46875 54.89890625 2.46875 61.16890625 2.46875 67.62890625 C4.99789062 67.55929688 4.99789062 67.55929688 7.578125 67.48828125 C9.79164897 67.45076389 12.00519207 67.4143637 14.21875 67.37890625 C15.32992187 67.34539062 16.44109375 67.311875 17.5859375 67.27734375 C18.65585938 67.26445312 19.72578125 67.2515625 20.828125 67.23828125 C22.30490723 67.20686035 22.30490723 67.20686035 23.81152344 67.17480469 C27.21932274 67.75717392 28.36968791 68.93533325 30.46875 71.62890625 C31.03125 74.56640625 31.03125 74.56640625 30.46875 77.62890625 C27.78348818 81.0756697 26.29889543 82.47622126 21.95117188 83.27587891 C20.6136694 83.30860343 19.27525473 83.31286992 17.9375 83.29296875 C17.22396362 83.29775238 16.51042725 83.30253601 15.77526855 83.3074646 C14.27251978 83.31085435 12.76969634 83.30171633 11.26708984 83.28076172 C8.97455525 83.25397408 6.68691466 83.28053156 4.39453125 83.3125 C2.92967676 83.30919573 1.4648253 83.30278911 0 83.29296875 C-1.02051453 83.30815048 -1.02051453 83.30815048 -2.06164551 83.32363892 C-5.63602449 83.23618499 -7.37447218 82.75159611 -10.21066284 80.53207397 C-13.09309601 76.92600949 -13.16369702 75.10620111 -13.17822266 70.53125 C-13.18698425 69.83629425 -13.19574585 69.1413385 -13.20477295 68.42532349 C-13.22669945 66.13837413 -13.212241 63.85337369 -13.1953125 61.56640625 C-13.19868265 59.97126903 -13.20353692 58.37613431 -13.20980835 56.78100586 C-13.21717043 53.44197073 -13.20649651 50.10360553 -13.18310547 46.76464844 C-13.15461698 42.49035825 -13.17102468 38.21763778 -13.20096779 33.94340515 C-13.21905939 30.65071849 -13.21327444 27.35840234 -13.20032883 24.06570435 C-13.19699991 22.49007988 -13.20106386 20.91442148 -13.21272659 19.33883667 C-13.22546745 17.13384271 -13.20601957 14.93136925 -13.17822266 12.7265625 C-13.17424469 11.47367432 -13.17026672 10.22078613 -13.16616821 8.92993164 C-11.75272033 1.58122553 -6.79857613 -0.1324875 0 0 Z " fill="#020202" transform="translate(181.53125,183.37109375)"/>
<path d="M0 0 C7.47300808 3.92742031 12.31011517 9.18034551 15 17.25 C15.63420469 25.43228015 15.80974752 32.37893212 11 39.25 C10.443125 40.136875 9.88625 41.02375 9.3125 41.9375 C3.69089032 47.55910968 -3.25746944 50.38320828 -11.125 50.625 C-18.78993141 50.5398341 -23.39675692 48.55062696 -29 43.41796875 C-34.57874164 37.52542289 -37.05636606 31.96278799 -37.5 23.875 C-37.26691539 16.86303809 -34.83395738 11.34000282 -30.09765625 6.17578125 C-28.14295536 4.38616066 -26.14957667 2.7976952 -24 1.25 C-23.113125 0.610625 -22.22625 -0.02875 -21.3125 -0.6875 C-14.36642174 -2.91548737 -6.7526404 -2.86167173 0 0 Z " fill="#FCEDCC" transform="translate(423,200.75)"/>
<path d="M0 0 C0 3.21253604 -0.62176885 5.70959922 -1.4375 8.8125 C-3.72651498 17.53729622 -4.21233076 25.6314688 -4.25 34.625 C-4.270625 35.83285156 -4.29125 37.04070312 -4.3125 38.28515625 C-4.34708817 46.31825918 -3.29712398 53.31510276 -1 61 C-0.68675781 62.18078125 -0.37351562 63.3615625 -0.05078125 64.578125 C0.19285156 65.45984375 0.43648438 66.3415625 0.6875 67.25 C0.93886719 68.16265625 1.19023437 69.0753125 1.44921875 70.015625 C1.63097656 70.67046875 1.81273437 71.3253125 2 72 C1.42894531 72.00257813 0.85789062 72.00515625 0.26953125 72.0078125 C-6.62591987 72.33668934 -11.72403718 74.4647565 -17.82421875 77.625 C-21.29772715 79.12890524 -24.22541209 79.78091872 -28 80 C-30 78 -30 78 -30.08422852 75.453125 C-30.01647217 74.39609375 -29.94871582 73.3390625 -29.87890625 72.25 C-29.83185547 71.08339844 -29.78480469 69.91679688 -29.73632812 68.71484375 C-29.62183415 66.26801745 -29.4792873 63.82231799 -29.30664062 61.37890625 C-29.08369543 54.47894155 -29.5816761 50.62241793 -34.30078125 45.39453125 C-35.85374061 43.91543931 -37.41954951 42.44967996 -39 41 C-40.23151878 39.58231273 -41.44485975 38.14823429 -42.625 36.6875 C-43.11226563 36.09324219 -43.59953125 35.49898437 -44.1015625 34.88671875 C-45 33 -45 33 -44.9609375 30.41015625 C-44 28 -44 28 -41.8125 26.671875 C-36.56326016 24.95129083 -31.71330581 23.55343559 -26.16796875 23.37109375 C-22.20343151 22.69247927 -19.13222686 21.48262511 -16.63208008 18.20874023 C-15.27952085 16.00832322 -14.03099429 13.7773107 -12.8125 11.5 C-11.96894097 9.96648905 -11.12142176 8.43514837 -10.26953125 6.90625 C-9.90448486 6.22884766 -9.53943848 5.55144531 -9.16333008 4.85351562 C-6.56389875 0.71188233 -4.94797168 -0.40118689 0 0 Z " fill="#00C2F9" transform="translate(311,57)"/>
<path d="M0 0 C10.31227446 3.90442463 15.46612992 20.94982018 19.6875 30.25 C20.22173584 31.44544434 20.75597168 32.64088867 21.30639648 33.87255859 C24.13136272 40.16141438 27.07590128 46.10012615 30.85449219 51.87475586 C32.80705761 55.49732235 32.61692096 57.95574039 32 62 C30.6855912 65.28602199 29.42770592 66.67359285 26.625 68.8125 C20.54555106 70.80404362 13.26542436 71.47562908 7.3203125 68.7890625 C-0.91533152 62.43902048 -5.49949605 50.05477882 -7 40 C-7.92314203 25.97978041 -7.82878509 12.20303463 0 0 Z " fill="#E6A780" transform="translate(225,427)"/>
<path d="M0 0 C4.55974958 1.4204795 7.39258281 3.96810034 10.66796875 7.3046875 C11.18885574 7.82507599 11.70974274 8.34546448 12.24641418 8.88162231 C13.34163491 9.9791752 14.43318446 11.08040236 15.52124023 12.18505859 C17.18382341 13.87127116 18.8593636 15.54373133 20.53710938 17.21484375 C21.60235746 18.2856681 22.66683723 19.35725743 23.73046875 20.4296875 C24.22943161 20.92773895 24.72839447 21.42579041 25.24247742 21.93893433 C27.70591468 24.45295557 29.66824861 26.71982895 31 30 C30.18917969 30.61746094 29.37835938 31.23492187 28.54296875 31.87109375 C18.34126057 39.66236336 8.34349149 47.58727837 -1.02954102 56.37084961 C-3.27976843 58.47220702 -5.42880486 60.28586991 -8 62 C-8.05038777 58.12634335 -8.08617252 54.2528201 -8.10986328 50.37890625 C-8.12456776 48.4322232 -8.15001202 46.48563053 -8.17578125 44.5390625 C-8.23443656 33.04262224 -7.06665133 21.96765287 -4 10.875 C-3.67 9.65554688 -3.34 8.43609375 -3 7.1796875 C-2.185982 4.59136463 -1.31515943 2.36024147 0 0 Z " fill="#807ACF" transform="translate(138,320)"/>
<path d="M0 0 C1.13324761 0.81518991 2.23716704 1.67230691 3.3125 2.5625 C6.99266193 5.41379663 10.05233456 5.66331377 14.6328125 5.43359375 C18.09850864 4.79878802 20.31860222 3.22359816 23 1 C26 -1 26 -1 29.5 -0.8125 C33 0 33 0 34.9375 1.1875 C36.63057563 4.07568783 36.5719564 5.69536301 36 9 C32.51706451 15.18733245 26.6883063 18.98274944 20 21 C8.50530924 22.3561152 0.69796555 20.41039596 -8.3359375 13.5 C-10 12 -10 12 -12 9 C-11.8684799 5.31743715 -11.73329557 2.90251763 -9.375 0 C-5.81359929 -1.49953714 -3.71005314 -1.00611611 0 0 Z " fill="#040403" transform="translate(296,320)"/>
<path d="M0 0 C0.33 0 0.66 0 1 0 C1.06316406 0.63421875 1.12632812 1.2684375 1.19140625 1.921875 C2.98331063 15.57807257 7.81273078 29.31402433 14.93359375 41.1015625 C16 43 16 43 16 45 C10.64653402 43.55580918 6.76377279 41.04245796 2.3125 37.875 C1.26835937 37.14446411 1.26835937 37.14446411 0.203125 36.39916992 C-5.58252466 32.33762788 -11.31609771 28.20271589 -17 24 C-15.45887007 19.21343175 -12.74544553 15.84307502 -9.625 12 C-9.14289063 11.39671875 -8.66078125 10.7934375 -8.1640625 10.171875 C-7.22122309 8.99332573 -6.27504073 7.8174414 -5.32519531 6.64453125 C-4.10460621 5.12981345 -2.90665077 3.59693069 -1.7109375 2.0625 C-1.14632812 1.381875 -0.58171875 0.70125 0 0 Z " fill="#01C0F7" transform="translate(132,402)"/>
<path d="M0 0 C14.45412963 -0.40907914 14.45412963 -0.40907914 20 3 C22.1979747 5.71083547 22.92397877 7.48957172 23.4375 10.9375 C22.75551119 15.71142164 20.63162978 18.75879592 16.8125 21.6640625 C13.25035904 23.35607945 10.61200614 23.29753288 6.6875 23.1875 C3.3771875 23.0946875 3.3771875 23.0946875 0 23 C0 15.41 0 7.82 0 0 Z " fill="#FBECCB" transform="translate(321,199)"/>
<path d="M0 0 C3.3271102 0.98581043 4.3365204 1.35651811 6.375 4 C6.9978433 7.11572188 6.83855069 10.2664207 6.8125 13.4375 C6.83248047 14.29666016 6.85246094 15.15582031 6.87304688 16.04101562 C6.86819023 22.30122507 6.86819023 22.30122507 4.56640625 25.5625 C1.31169531 27.69749755 -0.82673899 27.61043481 -4.625 27 C-7.65561212 24.21877636 -8.8677397 21.99499404 -9.19140625 17.96875 C-9.21117775 16.47929732 -9.20936546 14.98942341 -9.1875 13.5 C-9.21134766 12.75363281 -9.23519531 12.00726563 -9.25976562 11.23828125 C-9.24865214 7.05220056 -8.93644028 5.40893004 -6.31640625 1.96875 C-3.625 0 -3.625 0 0 0 Z " fill="#080706" transform="translate(246.625,307)"/>
<path d="M0 0 C3.83673978 1.20786252 4.53855599 1.58034058 6.375 5.0625 C6.8361039 8.06984673 6.83918843 11.02487174 6.8125 14.0625 C6.83248047 14.86945313 6.85246094 15.67640625 6.87304688 16.5078125 C6.86988372 20.34155527 6.84180527 22.41018248 4.56640625 25.58984375 C1.3188257 27.77226419 -0.80929917 27.67573763 -4.625 27.0625 C-7.65561212 24.28127636 -8.8677397 22.05749404 -9.19140625 18.03125 C-9.21117775 16.54179732 -9.20936546 15.05192341 -9.1875 13.5625 C-9.21134766 12.81613281 -9.23519531 12.06976563 -9.25976562 11.30078125 C-9.24865463 7.1156401 -8.93792759 5.47285344 -6.31640625 2.03515625 C-3.625 0.0625 -3.625 0.0625 0 0 Z " fill="#060605" transform="translate(371.625,306.9375)"/>
<path d="M0 0 C0.66 0 1.32 0 2 0 C3.51220703 1.8359375 3.51220703 1.8359375 5.2578125 4.375 C5.88300781 5.27734375 6.50820312 6.1796875 7.15234375 7.109375 C7.80332031 8.06328125 8.45429688 9.0171875 9.125 10 C9.78371094 10.95390625 10.44242188 11.9078125 11.12109375 12.890625 C12.7534435 15.25634928 14.37939236 17.62622333 16 20 C13.37612653 24.76139968 10.58899315 29.09953138 7.3125 33.4375 C6.52488281 34.48808594 5.73726562 35.53867188 4.92578125 36.62109375 C4.29027344 37.40613281 3.65476563 38.19117188 3 39 C2.67 39 2.34 39 2 39 C-0.38776806 12.0423526 -0.38776806 12.0423526 0 0 Z " fill="#FAEBC9" transform="translate(233,202)"/>
</svg>
